<?xml version="1.0" encoding="utf-8"?>
<!-- Generator: Adobe Illustrator 18.1.1, SVG Export Plug-In . SVG Version: 6.00 Build 0)  -->
<svg version="1.1" id="Layer_1" xmlns="http://www.w3.org/2000/svg" xmlns:xlink="http://www.w3.org/1999/xlink" x="0px" y="0px"
	 viewBox="0 0 152 24" enable-background="new 0 0 152 24" xml:space="preserve">
<g>
	<g>
		<g>
			<g>
				<path fill="#FFFFFF" d="M28.8,17.8"/>
			</g>
			<g>
				<path fill="#FFFFFF" d="M13.8,3.1c1.9,0,3.5,1,4.3,2.6C18.5,6.5,19.3,7,20.2,7c0.3,0,0.6-0.1,0.9-0.2c0.6-0.3,1.3-0.4,2-0.4
					c2.2,0,4.1,1.4,4.7,3.5c0.3,1,1.2,1.7,2.2,1.7c2.6,0.1,4.7,2.2,4.7,4.7c0,2.6-2.2,4.7-4.8,4.7c-1.5,0-2.9-0.6-3.8-1.8
					c-0.4-0.5-1.1-0.8-1.8-0.8c-0.7,0-1.4,0.3-1.8,0.8c-0.9,1.1-2.3,1.8-3.8,1.8c-1.5,0-2.8-0.6-3.8-1.7c-0.4-0.5-1.1-0.8-1.8-0.8
					c-0.7,0-1.3,0.3-1.8,0.8c-0.9,1.1-2.3,1.7-3.8,1.7c-2.7,0-4.8-2.1-4.8-4.7c0-2.4,1.8-4.4,4.3-4.6c0.7-0.1,1.3-0.4,1.7-1
					C9,10.1,9.2,9.4,9,8.7C9,8.4,8.9,8.1,8.9,7.8C8.9,5.2,11.1,3.1,13.8,3.1 M13.8,0.8c-4,0-7.2,3.1-7.2,7c0,0.5,0.1,1,0.2,1.5
					c-3.6,0.4-6.4,3.4-6.4,7c0,3.9,3.2,7,7.2,7c2.2,0,4.2-1,5.5-2.6c1.3,1.6,3.4,2.6,5.5,2.6c2.2,0,4.2-1,5.6-2.6
					c1.3,1.6,3.4,2.6,5.6,2.6c4,0,7.2-3.1,7.2-7c0-3.8-3.1-6.9-7-7c-0.8-3-3.6-5.2-6.9-5.2c-1,0-2,0.2-2.9,0.6
					C19,2.3,16.5,0.8,13.8,0.8L13.8,0.8z"/>
			</g>
			<g>
				<ellipse fill="#FFFFFF" cx="7.5" cy="16.2" rx="1.9" ry="1.8"/>
			</g>
			<g>
				<ellipse fill="#FFFFFF" cx="13.8" cy="7.8" rx="1.9" ry="1.8"/>
			</g>
			<g>
				<ellipse fill="#FFFFFF" cx="23.1" cy="11" rx="1.9" ry="1.8"/>
			</g>
			<g>
				<ellipse fill="#FFFFFF" cx="29.8" cy="16.2" rx="1.9" ry="1.8"/>
			</g>
			<g>
				<ellipse fill="#FFFFFF" cx="18.6" cy="16.2" rx="1.9" ry="1.8"/>
			</g>
			<g>
				<polygon fill="#FFFFFF" points="18.5,17.3 13.7,8.9 8.1,16.6 7,16.3 13.8,7 18.7,15.5 23,10.6 30.2,16.1 29.4,16.7 23.2,11.9 
									"/>
			</g>
		</g>
		<g>
			<path fill="#FFFFFF" d="M40.1,19.2c-0.4,0-0.5-0.2-0.4-0.5L43.2,9c0.5-0.2,1.1-0.3,1.6-0.3c0.5,0,0.8,0.1,0.9,0.6l3.6,9.9h-1.7
				c-0.3,0-0.6-0.1-0.7-0.4l-0.6-1.9h-3.9l-0.7,2.3H40.1z M44.4,11L43,15.3h2.8L44.4,11z"/>
			<path fill="#FFFFFF" d="M52.8,12.4v6.8h-1.6c-0.4,0-0.5-0.1-0.5-0.4V9.3c0.4-0.3,1.1-0.6,1.5-0.6c0.3,0,0.4,0.1,0.6,0.3l4.1,6.6
				V8.8h1.6c0.4,0,0.5,0.1,0.5,0.4v9.5c-0.4,0.3-1.1,0.6-1.5,0.6c-0.3,0-0.4-0.1-0.6-0.3L52.8,12.4z"/>
			<path fill="#FFFFFF" d="M61,19.2c-0.4,0-0.5-0.2-0.4-0.5L64.1,9c0.5-0.2,1.1-0.3,1.6-0.3c0.5,0,0.8,0.1,0.9,0.6l3.6,9.9h-1.7
				c-0.3,0-0.6-0.1-0.7-0.4l-0.6-1.9h-3.9l-0.7,2.3H61z M65.3,11l-1.4,4.2h2.8L65.3,11z"/>
			<path fill="#FFFFFF" d="M74.2,19.2c-2.1,0-2.8-1-2.8-3.2V8.9c0.4-0.1,0.9-0.2,1.5-0.2c0.4,0,0.6,0.1,0.6,0.4V16
				c0,1.1,0.2,1.5,1,1.5h3.2c0.3,0,0.4,0.1,0.4,0.5v1.2H74.2z"/>
			<path fill="#FFFFFF" d="M81.1,15.7l-3.4-6c0.5-0.5,1.1-0.9,1.5-0.9c0.2,0,0.3,0.1,0.5,0.3l2.5,4.8c1-1.5,2-3.3,2.5-5h1.5
				c0.4,0,0.6,0.2,0.5,0.6c-0.6,2.1-2,4.3-3.5,6.2v3.6h-1.6c-0.4,0-0.5-0.1-0.5-0.4V15.7z"/>
			<path fill="#FFFFFF" d="M91.4,19.2c-0.4,0-0.5-0.1-0.5-0.4v-8.3h-2.6c-0.3,0-0.4-0.1-0.4-0.5c0-0.4,0.1-0.8,0.1-1.2h7.6
				c0.3,0,0.4,0.1,0.4,0.5v1.2h-3v8.7H91.4z"/>
			<path fill="#FFFFFF" d="M98.3,19.2c-0.4,0-0.5-0.1-0.5-0.4V8.9c0.4-0.1,0.9-0.2,1.5-0.2c0.4,0,0.6,0.1,0.6,0.4v10H98.3z"/>
			<path fill="#FFFFFF" d="M106.8,10.4c-1.4,0-2.7,1.2-2.7,3.3c0,2.5,1.6,4,3.9,4c0.8,0,1.7-0.2,2.4-0.5c0.1,0.2,0.3,0.6,0.3,0.9
				c0,0.6-1.4,1.3-3.1,1.3c-3.2,0-5.6-2.2-5.6-5.7c0-3.2,2.2-5.1,4.9-5.1c1.9,0,3.4,0.9,4,2.1c0.1,0.2,0.1,0.3,0.1,0.5
				c0,0.2-0.1,0.4-0.4,0.5c-0.4,0.2-0.9,0.4-1.4,0.4C108.8,11,107.9,10.4,106.8,10.4z"/>
			<path fill="#FFFFFF" d="M115.6,19.2c-2.1,0-2.8-1-2.8-3.2V8.9c0.4-0.1,0.9-0.2,1.5-0.2c0.4,0,0.6,0.1,0.6,0.4V16
				c0,1.1,0.2,1.5,1,1.5h3.2c0.3,0,0.4,0.1,0.4,0.5v1.2H115.6z"/>
			<path fill="#FFFFFF" d="M125.2,19.4c-2.8,0-5-1.9-5-5.4c0-3.5,2.3-5.4,5-5.4c2.8,0,5,1.9,5,5.4C130.2,17.5,127.9,19.4,125.2,19.4
				z M128.1,14.1c0-2.3-1.3-3.8-3-3.8c-1.5,0-2.8,1.1-2.8,3.5c0,2.3,1.4,3.8,3,3.8C126.7,17.6,128.1,16.6,128.1,14.1z"/>
			<path fill="#FFFFFF" d="M132.1,8.9c0.4-0.1,0.9-0.2,1.5-0.2c0.4,0,0.6,0.1,0.6,0.4V15c0,1.6,0.8,2.6,2.1,2.6s2.1-1,2.1-2.6V8.8
				h1.6c0.4,0,0.5,0.1,0.5,0.4v5.6c0,2.8-1.5,4.5-4.2,4.5c-2.6,0-4.2-1.7-4.2-4.5V8.9z"/>
			<path fill="#FFFFFF" d="M145.6,19.2c-1.9,0-2.8-0.9-2.8-3.1V8.8h3.9c2.8,0,4.9,2,4.9,5.2c0,3.2-2.1,5.2-5,5.2H145.6z M146.5,10.5
				h-1.6V16c0,1.1,0.3,1.5,1,1.5h0.5c1.7,0,3-1.2,3-3.5C149.5,11.7,148.2,10.5,146.5,10.5z"/>
		</g>
	</g>
</g>
</svg>
