<?xml version="1.0" encoding="utf-8"?>
<!-- Generator: Adobe Illustrator 18.1.1, SVG Export Plug-In . SVG Version: 6.00 Build 0)  -->
<svg version="1.1" id="Layer_1" xmlns="http://www.w3.org/2000/svg" xmlns:xlink="http://www.w3.org/1999/xlink" x="0px" y="0px"
	 viewBox="1.6 255.8 144.5 88.8" enable-background="new 1.6 255.8 144.5 88.8" xml:space="preserve">
<g>
	<g>
		<g>
			<g>
				<path fill="#FFFFFF" d="M113.7,322.9"/>
			</g>
			<g>
				<path fill="#FFFFFF" d="M54.5,264.9c7.5,0,13.8,3.9,17,10.3c1.6,3.2,4.7,5.1,8.3,5.1c1.2,0,2.4-0.4,3.6-0.8
					c2.4-1.2,5.1-1.6,7.9-1.6c8.7,0,16.2,5.5,18.6,13.8c1.2,3.9,4.7,6.7,8.7,6.7c10.3,0.4,18.6,8.7,18.6,18.6
					c0,10.3-8.7,18.6-18.9,18.6c-5.9,0-11.4-2.4-15-7.1c-1.6-2-4.3-3.2-7.1-3.2c-2.8,0-5.5,1.2-7.1,3.2c-3.6,4.3-9.1,7.1-15,7.1
					c-5.9,0-11.1-2.4-15-6.7c-1.6-2-4.3-3.2-7.1-3.2s-5.1,1.2-7.1,3.2c-3.6,4.3-9.1,6.7-15,6.7c-10.7,0-18.9-8.3-18.9-18.6
					c0-9.5,7.1-17.4,17-18.2c2.8-0.4,5.1-1.6,6.7-3.9c1.2-2.4,2-5.1,1.2-7.9c0-1.2-0.4-2.4-0.4-3.6
					C35.1,273.2,43.8,264.9,54.5,264.9 M54.5,255.8c-15.8,0-28.4,12.2-28.4,27.6c0,2,0.4,3.9,0.8,5.9C12.6,290.9,1.6,302.8,1.6,317
					c0,15.4,12.6,27.6,28.4,27.6c8.7,0,16.6-3.9,21.7-10.3c5.1,6.3,13.4,10.3,21.7,10.3c8.7,0,16.6-3.9,22.1-10.3
					c5.1,6.3,13.4,10.3,22.1,10.3c15.8,0,28.4-12.2,28.4-27.6c0-15-12.2-27.2-27.6-27.6c-3.2-11.8-14.2-20.5-27.2-20.5
					c-3.9,0-7.9,0.8-11.4,2.4C75,261.7,65.1,255.8,54.5,255.8L54.5,255.8z"/>
			</g>
			<g>
				<ellipse fill="#FFFFFF" cx="29.6" cy="316.6" rx="7.5" ry="7.1"/>
			</g>
			<g>
				<ellipse fill="#FFFFFF" cx="54.5" cy="283.4" rx="7.5" ry="7.1"/>
			</g>
			<g>
				<ellipse fill="#FFFFFF" cx="91.2" cy="296.1" rx="7.5" ry="7.1"/>
			</g>
			<g>
				<ellipse fill="#FFFFFF" cx="117.6" cy="316.6" rx="7.5" ry="7.1"/>
			</g>
			<g>
				<ellipse fill="#FFFFFF" cx="73.4" cy="316.6" rx="7.5" ry="7.1"/>
			</g>
			<g>
				<polygon fill="#FFFFFF" points="73,320.9 54.1,287.8 32,318.2 27.6,317 54.5,280.3 73.8,313.8 90.8,294.5 119.2,316.2 
					116.1,318.6 91.6,299.6 				"/>
			</g>
		</g>
	</g>
</g>
</svg>
